<mxfile host="app.diagrams.net" agent="Mozilla/5.0 (Windows NT 10.0; Win64; x64) AppleWebKit/537.36 (KHTML, like Gecko) Chrome/129.0.0.0 Safari/537.36" version="24.7.17">
  <diagram name="Halaman-1" id="aCdSIoyGZyg0aapa_b-c">
    <mxGraphModel dx="794" dy="420" grid="1" gridSize="10" guides="1" tooltips="1" connect="1" arrows="1" fold="1" page="1" pageScale="1" pageWidth="850" pageHeight="1100" math="0" shadow="0">
      <root>
        <mxCell id="0" />
        <mxCell id="1" parent="0" />
        <mxCell id="twHCCxjceD1nfkposxcJ-1" value="mulai" style="strokeWidth=2;html=1;shape=mxgraph.flowchart.start_1;whiteSpace=wrap;" vertex="1" parent="1">
          <mxGeometry x="360" y="170" width="100" height="60" as="geometry" />
        </mxCell>
        <mxCell id="twHCCxjceD1nfkposxcJ-2" value="menambah dan&amp;nbsp;&lt;span style=&quot;background-color: initial;&quot;&gt;memasukan&amp;nbsp;&lt;/span&gt;&lt;div&gt;&lt;span style=&quot;background-color: initial;&quot;&gt;id pesanan&amp;nbsp;&lt;/span&gt;&lt;/div&gt;" style="shape=parallelogram;html=1;strokeWidth=2;perimeter=parallelogramPerimeter;whiteSpace=wrap;rounded=1;arcSize=12;size=0.23;" vertex="1" parent="1">
          <mxGeometry x="280" y="290" width="280" height="80" as="geometry" />
        </mxCell>
        <mxCell id="twHCCxjceD1nfkposxcJ-3" value="memasukan id kedalam antrian dan menggubah status objek pesanan dengan ID yang diterima menjadi &quot;dalam proses&quot;&amp;nbsp;" style="rounded=1;whiteSpace=wrap;html=1;absoluteArcSize=1;arcSize=14;strokeWidth=2;" vertex="1" parent="1">
          <mxGeometry x="340" y="410" width="160" height="120" as="geometry" />
        </mxCell>
        <mxCell id="twHCCxjceD1nfkposxcJ-4" value="" style="shape=parallelogram;html=1;strokeWidth=2;perimeter=parallelogramPerimeter;whiteSpace=wrap;rounded=1;arcSize=12;size=0.23;" vertex="1" parent="1">
          <mxGeometry x="350" y="560" width="160" height="80" as="geometry" />
        </mxCell>
        <mxCell id="twHCCxjceD1nfkposxcJ-5" value="melihat&amp;nbsp;&lt;div&gt;proses pesanan&lt;/div&gt;" style="text;html=1;align=center;verticalAlign=middle;resizable=0;points=[];autosize=1;strokeColor=none;fillColor=none;" vertex="1" parent="1">
          <mxGeometry x="370" y="580" width="110" height="40" as="geometry" />
        </mxCell>
      </root>
    </mxGraphModel>
  </diagram>
</mxfile>
